<?xml version="1.0" encoding="utf-8"?>
<!-- Generator: Adobe Illustrator 25.4.1, SVG Export Plug-In . SVG Version: 6.00 Build 0)  -->
<svg version="1.1" id="Layer_1" xmlns="http://www.w3.org/2000/svg" xmlns:xlink="http://www.w3.org/1999/xlink" x="0px" y="0px"
	 viewBox="0 0 631 631" style="enable-background:new 0 0 631 631;" xml:space="preserve">
<style type="text/css">
	.st0{fill:none;}
	.st1{fill:#FEBC12;}
	.st2{clip-path:url(#SVGID_00000088117358879234635190000004759116984906939799_);fill:#C09A72;}
	.st3{clip-path:url(#SVGID_00000093163755067488769240000012796234546302567307_);fill:#FFFFFF;}
	.st4{clip-path:url(#SVGID_00000077288631686523497970000007088392524336573850_);fill:#FFFFFF;}
	.st5{clip-path:url(#SVGID_00000124142029019805678940000007650068414420077476_);fill:#FFFFFF;}
	
		.st6{opacity:0.32;clip-path:url(#SVGID_00000174576434862120940740000008451763716076775061_);fill:#F27072;enable-background:new    ;}
	
		.st7{opacity:0.32;clip-path:url(#SVGID_00000146463239385643136130000017878268603916653185_);fill:#F27072;enable-background:new    ;}
	.st8{clip-path:url(#SVGID_00000000194430173118767160000000339220185578268560_);fill:#4270B7;}
	.st9{clip-path:url(#SVGID_00000150075049231147773420000000619444290397056924_);fill:#DC3534;}
	.st10{clip-path:url(#SVGID_00000070820598133549232030000012530715408592522678_);fill:#DC3534;}
	.st11{clip-path:url(#SVGID_00000067221737160920350420000006191147336301350057_);fill:#FFFFFF;}
	.st12{clip-path:url(#SVGID_00000164489819967442056710000001544219283867270544_);}
	.st13{opacity:0.24;clip-path:url(#SVGID_00000152265150897639942060000012233509932516233146_);enable-background:new    ;}
	.st14{opacity:0.24;clip-path:url(#SVGID_00000140697515304638272850000006768414157348261055_);enable-background:new    ;}
	.st15{opacity:0.24;clip-path:url(#SVGID_00000045611342373098294900000002152982624769319336_);enable-background:new    ;}
	.st16{opacity:0.24;clip-path:url(#SVGID_00000169535275626451805340000009940894825580780464_);enable-background:new    ;}
	.st17{opacity:0.24;clip-path:url(#SVGID_00000012456784323475786390000007429901747798185383_);enable-background:new    ;}
	.st18{opacity:0.24;clip-path:url(#SVGID_00000054981615191641128640000002381955183360993980_);enable-background:new    ;}
</style>
<g>
	<circle class="st0" cx="317.6" cy="315.5" r="312"/>
	<circle class="st1" cx="315.5" cy="315.5" r="312"/>
	<g>
		<defs>
			<circle id="SVGID_1_" cx="317.6" cy="315.5" r="312"/>
		</defs>
		<clipPath id="SVGID_00000100356868620295067760000008391295314106310023_">
			<use xlink:href="#SVGID_1_"  style="overflow:visible;"/>
		</clipPath>
		<path style="clip-path:url(#SVGID_00000100356868620295067760000008391295314106310023_);fill:#C09A72;" d="M407,301.2
			c1.2-1.5-0.1-3.7,0.5-5.5c0.8-2.4,4.1-2.5,6.7-2.9c5.3-0.9,9.5-5.3,11.5-10.3s2.3-10.5,2.5-15.9c0.2-5.1,0.4-10.1,0.7-15.2
			c0.1-2.2,0.2-4.4-0.3-6.5c-1.6-6.8-10.1-10.9-16.4-8.1c-0.1-6.9-0.6-13.9-1.6-20.8c-0.3-2.2-0.7-4.4-2.1-6.1
			c-1.4-1.7-3.6-2.6-5.7-3.4c-34.6-12.9-72.2-18.5-108.7-13.4c-5.2,0.7-10.3,1.6-15.3,3c-10.3,2.7-20.5,8.6-29.5,14.4
			c-1.3,11.2-2.4,22.4-3.3,33.6c-2.6,1.2-5.6,0.4-8.4,0.6c-5.7,0.4-10.7,5.3-11.3,10.9c-0.4,4.2,1.3,8.3,2,12.4
			c0.5,2.9,0.5,5.8,0.7,8.7c0.4,4.9,1.7,9.7,3.6,14.2c1,2.2,2.1,4.4,3.8,6.1c3.1,3,7.5,4,11.7,4.9c2.4,0.5,5.3,0.8,6.9-1
			c1.1,25.3,2.7,50.5,3.8,75.8c0.3,6.9,0.6,13.9,1.8,20.7c3.8,21.5,17.6,41.8,37.8,49.8c13.8,5.5,29.2,5.1,43.9,3.5
			c6.4-0.7,12.9-1.6,18.8-4.1c6.2-2.6,11.5-6.8,16.7-10.9c9.3-7.3,18.7-14.8,25.2-24.7c4.7-7.1,7.7-15.8,6-24.1
			c-1.7-8.4-3-17.3-3-25.8c0-3.8,0.3-7.6,0.6-11.3C407.8,333.8,407.8,317.2,407,301.2z"/>
	</g>
	<g>
		<defs>
			<circle id="SVGID_00000132799647063372489210000004016432942061104022_" cx="317.6" cy="315.5" r="312"/>
		</defs>
		<clipPath id="SVGID_00000060747490726792493400000011895785848706190485_">
			<use xlink:href="#SVGID_00000132799647063372489210000004016432942061104022_"  style="overflow:visible;"/>
		</clipPath>
		<path style="clip-path:url(#SVGID_00000060747490726792493400000011895785848706190485_);fill:#FFFFFF;" d="M308.1,235.3
			c-0.4-2.1-2.8-3.6-5.1-4.5c-7.8-3-17.4-2.6-24.8,1.3c-1.8,0.9-5.9,3.8-3.7,5.7c1.7,1.5,8.8,1.1,11.1,1.1
			C293.3,238.9,301,237.8,308.1,235.3z"/>
	</g>
	<g>
		<defs>
			<circle id="SVGID_00000118381223424205759510000006199198458502846639_" cx="317.6" cy="315.5" r="312"/>
		</defs>
		<clipPath id="SVGID_00000168802838783624555410000018023601554617340310_">
			<use xlink:href="#SVGID_00000118381223424205759510000006199198458502846639_"  style="overflow:visible;"/>
		</clipPath>
		<path style="clip-path:url(#SVGID_00000168802838783624555410000018023601554617340310_);fill:#FFFFFF;" d="M383.7,235.8
			c0.9-0.1,2-0.2,2.1-0.9c0.1-0.2,0-0.5-0.1-0.7c-1.3-2.9-4.6-5.1-8.2-6.1c-3.6-1-7.6-1-11.6-0.6c-2.6,0.2-5.4,0.6-7.7,1.7
			c-1.3,0.5-5.2,3-4.3,4.5c0.7,1.3,7.3,1.6,9,1.7C369.7,236.1,376.7,236.3,383.7,235.8z"/>
	</g>
	<g>
		<defs>
			<circle id="SVGID_00000025437496249854057720000013785031963168739205_" cx="317.6" cy="315.5" r="312"/>
		</defs>
		<clipPath id="SVGID_00000050626999982095363840000014052248265865522081_">
			<use xlink:href="#SVGID_00000025437496249854057720000013785031963168739205_"  style="overflow:visible;"/>
		</clipPath>
		<path style="clip-path:url(#SVGID_00000050626999982095363840000014052248265865522081_);fill:#FFFFFF;" d="M296.1,311.2
			c0.1,2.9,2.8,4.9,5.4,6.1c10.8,5.4,23.3,5.8,35.4,6c2.6,0,5.2,0,7.7-0.4c3.3-0.5,6.5-1.8,9.6-3c3.5-1.4,10.8-4.1,11.1-8.5
			c-11.3-0.7-23.1,0.9-34.4,0.9C319.3,312.3,307.7,311.9,296.1,311.2z"/>
	</g>
	<g>
		<defs>
			<circle id="SVGID_00000122683520830548364760000011383637228311849351_" cx="317.6" cy="315.5" r="312"/>
		</defs>
		<clipPath id="SVGID_00000045586555538968387310000014380545510170891667_">
			<use xlink:href="#SVGID_00000122683520830548364760000011383637228311849351_"  style="overflow:visible;"/>
		</clipPath>
		
			<path style="opacity:0.32;clip-path:url(#SVGID_00000045586555538968387310000014380545510170891667_);fill:#F27072;enable-background:new    ;" d="
			M331.5,301.3c-6-0.4-12-0.8-18-0.6c-5.6,0.2-11.1,0.9-16.7,1.7c-1.5,0.2-3.1,0.5-3.9,1.7c-0.9,1.4-0.2,3.4,1.1,4.4s3,1.3,4.7,1.6
			c21.3,3.2,42.9,1.9,64.4,2.6c2,0.1,4.2,0.1,5.9-1.1c7.1-5.4-10.8-7.6-13.1-8C347.9,302.4,339.7,301.8,331.5,301.3z"/>
	</g>
	<g>
		<defs>
			<circle id="SVGID_00000124861687811286177670000008409756389123728025_" cx="317.6" cy="315.5" r="312"/>
		</defs>
		<clipPath id="SVGID_00000151502527740997280820000012671149116765671303_">
			<use xlink:href="#SVGID_00000124861687811286177670000008409756389123728025_"  style="overflow:visible;"/>
		</clipPath>
		
			<path style="opacity:0.32;clip-path:url(#SVGID_00000151502527740997280820000012671149116765671303_);fill:#F27072;enable-background:new    ;" d="
			M309.6,328.2c6.8,3.7,14.5,5.4,22.3,5.9c2.9,0.2,5.8,0.2,8.7-0.1c12.6-1.5,24.1-10.5,28.6-22.4c-3.2,2.3-6.4,4.7-9.9,6.4
			c-5.1,2.4-10.7,3.4-16.3,4.2c-4.4,0.7-8.8,1.3-13.2,1.2c-7.9-0.1-15.7-2.2-23.3-4.5c-4.5-1.4-9-3.1-12.1-6.8
			C295.2,318.6,304.2,325.4,309.6,328.2z"/>
	</g>
	<g>
		<defs>
			<circle id="SVGID_00000021103112232699530950000000597315430535148691_" cx="317.6" cy="315.5" r="312"/>
		</defs>
		<clipPath id="SVGID_00000040543434597154058550000016955354668476545452_">
			<use xlink:href="#SVGID_00000021103112232699530950000000597315430535148691_"  style="overflow:visible;"/>
		</clipPath>
		<path style="clip-path:url(#SVGID_00000040543434597154058550000016955354668476545452_);fill:#4270B7;" d="M316.9,88
			c-15.9,4.3-31.9,8.7-47.8,13.1c-4.3,1.2-8.6,2.4-12.3,4.9c-3.1,2.1-5.5,4.9-7.9,7.8c-4.7,5.9-9.1,12.3-10.6,19.7
			c-0.8,4-0.6,8.1-0.5,12.1c0.6,19.5,1.3,39,1.9,58.5c31.5-21.8,72.1-27.1,110.2-22.3c6.9,0.9,13.8,2.1,20.6,3.6
			c13.1,2.9,26,7.2,38.3,12.6c0-7.8,0.1-15.6-0.3-23.4c-0.7-17-3.2-33.9-5.6-50.8c-0.3-2.2-0.7-4.5-1.7-6.5c-1.1-2-2.9-3.6-4.6-5.2
			c-6-5.3-12.2-10.6-19.7-13.3c-6.4-2.3-13.4-2.5-20.2-3.1C342.1,94.2,331,91.8,316.9,88z"/>
	</g>
	<g>
		<defs>
			<circle id="SVGID_00000045594602191062813830000012598366454221189307_" cx="317.6" cy="315.5" r="312"/>
		</defs>
		<clipPath id="SVGID_00000058563934592666459380000016650558019530417299_">
			<use xlink:href="#SVGID_00000045594602191062813830000012598366454221189307_"  style="overflow:visible;"/>
		</clipPath>
		<path style="clip-path:url(#SVGID_00000058563934592666459380000016650558019530417299_);fill:#DC3534;" d="M235.9,206.8
			c-4.5,3.1-9,6.7-11.6,11.5c6.1,2.4,12.6-1.9,18-5.5c5.2-3.4,10.6-6.5,16.2-9.1c17.9-8.3,37.7-12,57.4-12.4
			c19.7-0.4,39.4,2.4,58.7,6.7c15.5,3.5,31.3,8.2,43.2,18.7c1.7-1.8,1.8-4.7,0.9-7s-2.7-4.1-4.6-5.8c-14.3-12.7-34-16.8-52.7-20.5
			c-9.3-1.8-18.7-3.7-28.3-4.3c-7.7-0.5-14.7,0.8-22.3,1.4c-17.2,1.5-33.9,5.2-49.7,12.2C252.2,196.6,243.8,201.3,235.9,206.8z"/>
	</g>
	<g>
		<defs>
			<circle id="SVGID_00000029026243405891911050000016360929527456757688_" cx="317.6" cy="315.5" r="312"/>
		</defs>
		<clipPath id="SVGID_00000136380839327196497680000004153480629966568326_">
			<use xlink:href="#SVGID_00000029026243405891911050000016360929527456757688_"  style="overflow:visible;"/>
		</clipPath>
		<path style="clip-path:url(#SVGID_00000136380839327196497680000004153480629966568326_);fill:#DC3534;" d="M249.9,386.6
			c-19.3,8.8-38.2,18.8-56.3,29.8c-22.5,13.7-44,29.1-67.5,41c-8.5,4.3-18.1,7.3-25.4,13.5c-19.3,16.4-31.4,38-36.2,62.3
			c-4.8,24.3-3.9,48.5,6.3,71.1c3.8,8.4,8.5,16.5,15.2,22.8c10.8,10.1,25.6,14.5,39.9,18.5c133.1,37.8,276.6,32.3,414,16.3
			c7.9-0.9,15.9-1.9,23.2-5.1c10.8-4.7,19.3-14.1,23-25.3c2.7-8.1,2.7-16.8,2.8-25.4c0.2-21.4,3-39.3,3.2-60.7
			c0.1-8.4-2.6-20.5-4.8-28.6c-4.6-17.1-15.4-30.3-29.6-40.9c-41.7-31.4-92.1-62-134.9-91.9c-3.7,14.6-13.1,31.6-23.2,42.8
			c-5.9,6.5-11.8,13.1-19,18.1c-17,11.9-39,13.9-59.7,12.1c-12.1-1-24.3-3.3-35.4-8.5c-11-5.2-20.9-13.5-26.2-24.5
			c-2.8-5.7-4.3-12-5.8-18.2C252.3,400.6,251.2,391.9,249.9,386.6z"/>
	</g>
	<g>
		<defs>
			<circle id="SVGID_00000088853397661721134230000018293277496599892140_" cx="317.6" cy="315.5" r="312"/>
		</defs>
		<clipPath id="SVGID_00000124861036935602477640000008749128683168049571_">
			<use xlink:href="#SVGID_00000088853397661721134230000018293277496599892140_"  style="overflow:visible;"/>
		</clipPath>
		<path style="clip-path:url(#SVGID_00000124861036935602477640000008749128683168049571_);fill:#FFFFFF;" d="M243.8,457.9
			c11,15.1,26.9,25.8,38.5,40.4c12.1,15.1,19.1,33.6,24.1,52.3s42,118.7,47.6,137.1c6.8-2.6,13.6-5.2,20.4-7.7
			c1.1-0.4,2.3-0.9,3.1-1.8c2.2-2.4,0.5-6.2-1-9.1C368.8,654.9,332,557.8,329,542c-0.6-3-1.1-6-0.6-9c0.4-2.4,1.4-4.6,2.5-6.6
			c13.3-24.7,41.9-36.2,63.8-53.7c22.6-18.1,39.1-44.7,41.8-73.6c0.1-1.6,0.2-3.2-0.6-4.5c-0.8-1.2-2.2-1.8-3.5-2.3
			c-4.1-1.7-8.2-3.4-12.4-5.1c0.6,7,1.1,14.3-1.6,20.8c-2,4.7-5.5,8.6-9,12.3c-6.4,6.7-13.1,13.1-20,19.2
			c-6.4,5.7-13.1,11.2-21,14.6c-16.9,7.4-36.2,4.3-54.4,1c-6.6-1.2-13.2-2.4-19.2-5.4c-4.3-2.1-8.1-5.1-11.7-8.2
			c-8.2-6.9-15.9-14.4-23-22.4c-4-4.5-8-9.8-8-15.8c0-3.1,1.1-6.1,1.1-9.2s-1.6-6.6-4.6-7.1c-1.7-0.3-3.4,0.4-4.9,1.1
			c-4.4,2-15.8,5.9-17.8,10.5s1.1,15.5,2,20.4C230.4,432.9,235.5,446.4,243.8,457.9z"/>
	</g>
	<g>
		<defs>
			<circle id="SVGID_00000054974238322260759610000012131574935226127268_" cx="317.6" cy="315.5" r="312"/>
		</defs>
		<clipPath id="SVGID_00000020358537447418079980000011078115863418999486_">
			<use xlink:href="#SVGID_00000054974238322260759610000012131574935226127268_"  style="overflow:visible;"/>
		</clipPath>
		<g style="clip-path:url(#SVGID_00000020358537447418079980000011078115863418999486_);">
			<g>
				<path d="M408,373.1c0.9,0.3,1.6,0.6,2.3,0.8c3,0.7,5.9,1.9,8.7,3.2c2.1,1,4,2.2,5.5,4.1c2.4,3.2,5.4,5.8,8.6,8.2
					c3.2,2.4,6.3,4.9,9.6,7.1c2.8,1.9,5.6,3.8,8.5,5.5c4,2.3,7.8,4.8,11.4,7.6c4.7,3.8,9.7,7,15,9.8c8.8,4.7,17.2,10,25.2,15.9
					c5.5,4.1,11.3,7.8,16.9,11.8c2.6,1.8,5.1,3.8,7.6,5.8c3.3,2.6,6.7,5,10.3,7c3.1,1.8,6.2,3.5,9.3,5.3c4,2.3,7.6,5,11.1,8.1
					c2.7,2.4,5.6,4.8,8.5,7.1c3.6,2.9,6.8,6.2,9.3,10.1c3.3,5.1,6.6,10.2,9.5,15.5c2.4,4.4,4.2,9,4.7,14.1c0.6,5.3,1.4,10.6,2.1,16
					c0.1,0.7,0.1,1.4,0.1,2.1c0,0.6-0.5,1.1-1.1,1.2c-0.7,0.2-1.5-0.1-1.8-0.7c-0.3-0.6-0.5-1.3-0.6-2c-0.4-3-0.8-5.9-1.2-8.9
					c-0.4-3.2-0.8-6.3-1.2-9.5c-0.1-0.8-0.3-1.6-0.6-2.3c-1.4-3.9-2.8-7.8-5.1-11.4c-2.1-3.3-4-6.6-6.1-9.9
					c-3.1-5-6.9-9.2-11.6-12.8c-2.5-1.9-5-4-7.3-6.1c-3.7-3.4-7.8-6.2-12.2-8.6c-1.7-1-3.5-2-5.2-2.9c-5.3-2.9-10.2-6.2-14.8-10
					c-1.7-1.4-3.5-2.7-5.3-3.9c-7.2-5.1-14.5-10.2-21.7-15.3c-5.4-3.9-11.1-7.4-17-10.6c-7.2-3.9-14.1-8.1-20.6-13.2
					c-2.6-2.1-5.5-3.9-8.5-5.6c-4.6-2.7-9-5.5-13.1-8.8c-3-2.3-6-4.6-9-7c-0.1-0.1-0.4-0.1-0.5-0.2c-0.1,0.1-0.4,0.2-0.4,0.3
					c-0.4,4.5-1.8,8.7-3,13.1c-1.7,6.6-4.9,12.6-7.7,18.7c-0.8,1.7-1.8,3.3-2.9,4.8c-4.4,5.9-9.2,11.5-14.5,16.6
					c-0.5,0.5-1,1-1.6,1.4c-4.6,3.6-9.3,7.2-14,10.7c-1.3,1-2.8,1.9-4.1,3c-8.6,7.3-18.1,13.3-27.8,19.1c-3.7,2.3-7.5,4.5-11,7.1
					s-6.5,5.8-9.5,9c-1,1.1-1.7,2.4-2.5,3.7c-1.1,1.8-2.1,3.6-3.1,5.4c-1.6,2.7-2.5,5.6-3.3,8.6c-0.7,2.6-0.1,5.2,0.8,7.6
					c0.8,2.1,1.7,4.3,2.6,6.3c1.5,3.4,2.7,6.8,3.7,10.4c2.1,7.9,4.3,15.7,7.1,23.4c0.3,0.7,0.5,1.3-0.1,1.9
					c-0.8,0.9-2.2,0.9-2.8-0.1c-0.4-0.7-0.7-1.4-0.9-2.2c-2.6-7.2-4.7-14.6-6.6-22c-1-3.7-2.2-7.2-3.8-10.7
					c-2.6-5.6-4.5-11.5-5.8-17.5c-0.8-3.8-1.9-7.5-2.9-11.3c-1.1-3.8-2.8-7.5-4.7-10.9c-1.5-2.6-3.1-5.1-4.6-7.7
					c-0.9-1.6-2.2-2.8-3.6-4c-6.5-5.1-12.2-11.1-17.9-17.1c-4-4.3-8-8.6-12.5-12.5c-3.5-3.1-6.8-6.5-10.1-9.7
					c-0.6-0.6-1.3-1.3-1.8-2c-3-4.2-6.1-8.4-8.6-12.9c-2.7-4.9-4.4-10-5.1-15.5c-0.5-4.4-0.2-8.7,0.5-13.1c0.1-0.6,0.2-1.1,0.3-2
					c-0.7,0.2-1.1,0.3-1.5,0.6c-1.2,0.7-2.3,1.6-3.5,2.3c-1.6,1-3.2,2-4.9,2.8c-3.4,1.8-6.9,3.5-10.4,5.2c-2.2,1.1-4.5,2.1-6.8,2.9
					c-5.1,1.8-9.9,4.1-14.6,6.8c-8.4,4.7-16.5,10-24.1,16c-6.1,4.8-12.6,9-19.3,12.9c-5.2,3.1-10.5,6.1-15.1,10.1
					c-3.2,2.7-7,4.6-10.9,6.1c-2.4,0.9-4.7,2.1-7,3.4c-5.2,3-10.4,5.9-15.9,8.2c-5,2-9.2,5.1-12.9,9c-1.8,2-3.9,3.7-6.2,5.1
					c-4.2,2.6-7.2,6.2-9.8,10.3c-3.5,5.5-6.8,11-9.5,16.9c-1.7,3.6-3.3,7.2-4.5,11c-0.7,2-1.4,3.9-2.1,5.9c-0.9,2.5-1.8,5.1-2,7.8
					c-0.1,0.9-0.7,1.6-1.4,1.7c-0.9,0.1-2-0.8-2-1.8c0-0.7,0-1.4,0.2-2.1c0.5-2,1.1-4,1.7-6c0.8-2.5,1.7-4.9,2.6-7.3
					c3.1-8.5,6.9-16.7,11.9-24.3c1.3-2,2.5-4,3.9-6c2.1-3.2,4.7-5.9,7.9-8c2.9-1.9,5.5-4.2,8-6.7c3.1-3.2,6.7-5.9,10.9-7.7
					c6.6-2.8,12.9-6.3,19.1-9.8c1.9-1.1,3.9-2,5.9-2.8c3.7-1.5,7.3-3.3,10.3-5.9c4.3-3.6,9.1-6.5,13.9-9.3
					c7.9-4.6,15.5-9.8,22.7-15.3c9.7-7.5,20.2-13.9,31.3-19c1.2-0.5,2.4-1,3.6-1.5c4.5-1.6,8.8-3.6,13-5.9c1.3-0.7,2.7-1.4,4-2
					c2.5-1.2,4.9-2.6,7.3-4c2.5-1.6,5.2-3,7.8-4.3c0.9-0.5,1.7-1,2.3-1.8c2.2-2.7,4.5-5.3,7.4-7.5c0-1,0-2.1,0-3.2
					c-0.4-8.5-0.6-17.1-1.3-25.6c-0.5-6.1-0.8-12.1-0.9-18.2c0-2-0.4-3.9-1.1-5.8c-0.9-2.3-1.8-4.7-2.6-7c-1.1-3.1-1.8-6.3-2-9.6
					c0-0.6-0.2-1.2-0.3-1.9c-0.6-0.1-1.1-0.2-1.7-0.2c-4.3,0-7.9-1.7-10.8-4.9c-1.9-2.1-3.4-4.4-4.6-6.9c-3.1-6.8-4.7-13.9-4.8-21.4
					c0-2.9-0.5-5.7-0.7-8.6c-0.2-2.8-0.3-5.6-0.4-8.3c-0.2-6,2.5-8.7,8.7-10.9c0.7-0.3,1.5-0.4,2.3-0.6c-0.3-1.8-0.7-3.6-1.6-4.9
					c-2.4-3.5-2.5-7.5-2.8-11.4c-0.1-1.5-0.1-3-0.2-4.5c0-0.5-0.1-1-0.2-1.5c-1.4-0.5-2.6,0.2-3.9,0.2c-1,0-2,0.1-2.9-0.2
					c-2.4-0.7-3.2-2.7-1.9-4.9c0.6-1,1.4-2,2.2-2.8c1.7-1.5,3.5-3,5.2-4.4c0.8-0.7,1.8-1.3,2.8-2c0.2-3,0.4-6.1,0.5-9.1
					c0.1-5.1,0-10.2,0.6-15.2c0.1-0.5,0.1-1,0.1-1.5c-0.2-4.6,0.7-9.1,1-13.7c0.1-1.3,0.2-2.6,0.1-3.9c-0.6-6.4-0.6-12.7-0.3-19.1
					c0.2-3.9,0.6-7.7,1.4-11.5c1.3-6.8,4.5-12.7,8.8-18.1c1.5-1.9,3.1-3.6,4.7-5.4c0.5-0.5,1-1,1.5-1.4c2.8-1.9,5.5-4,8.4-5.7
					c1.9-1.2,4.1-2,6.3-2.7c3.3-1.1,6.7-2,10-2.9c4.6-1.2,9.2-2.4,13.8-3.6c5.9-1.6,12-2.8,17.9-4.7c4.4-1.4,8.9-2,13.6-1.6
					c1.4,0.1,2.8,0.4,4.1,0.9c7.4,2.5,15,4,22.7,5c5.4,0.7,10.8,1.7,16.2,2.6c2.5,0.4,5.1,1,7.6,1.5c3.4,0.6,6.7,1.8,10,3
					c3.7,1.4,6.9,3.5,9.9,6c3.1,2.7,5.8,5.7,8.4,8.9c1.7,2.2,3.1,4.6,3.9,7.3c1.2,4.1,2.3,8.2,3,12.5c1,6,1.8,12,3.1,17.9
					c1.6,7.3,2.9,14.6,5.1,21.8c0.9,2.8,1.3,5.8,2,8.7c0.2,0.9,0.3,1.8,0.6,2.6c1.3,4.8,2.2,9.7,2.5,14.7c0.1,1.3,0.4,2.6,0.7,3.8
					c0.5,2.1,0.6,4.3,0.5,6.5c-0.1,2.9-0.2,5.8-0.1,8.7c0.1,4.7-0.4,9.3-1.9,13.8c-0.2,0.5-0.3,1-0.4,1.5c0.3,0.1,0.6,0.3,0.8,0.3
					c5.4,0.7,7.9,4.5,9.6,9.1c0.9,2.5,0.8,5.1,0.4,7.7c-0.3,2.3-0.7,4.5-1,6.8c-0.5,3.3-0.4,6.5-0.4,9.8c0,3.6,0.1,7.2-0.8,10.7
					c-1.1,4.4-2.6,8.6-5.9,11.9c-2.4,2.5-5.2,4.3-8.9,4.5c-0.3,1.7-0.6,3.3-0.9,4.8c-1,4.7-2.1,9.3-3.1,14c-0.5,2.2-0.8,4.5-0.8,6.8
					c-0.2,16.6-0.5,33.2-0.8,49.9C407.9,371.1,407.9,372.1,408,373.1z M404.5,209.2c-1.5-0.5-2.8-0.8-4-1.2c-1.8-0.6-3.7-1-5.4-1.8
					c-7.4-3.3-15.3-4.8-23.1-7c-0.6-0.2-1.2-0.2-1.8-0.3c-4.9-0.9-9.8-1.9-14.7-2.7c-4.9-0.8-9.8-1.5-14.8-2
					c-5.4-0.5-10.9-0.6-16.4-0.7c-6.7-0.2-13.3,0.1-20,0.8c-5.3,0.5-10.7,1.3-15.9,2.3c-8,1.6-16,3.2-23.6,6.4
					c-2.8,1.2-5.7,2.4-8.5,3.6c-3.8,1.6-3.6,1.1-3.8,5.7c-0.2,5.3-0.5,10.5-0.7,15.8c-0.2,4.3-0.5,8.5-0.5,12.8
					c0.1,8.2,0.5,16.5,0.6,24.7c0.1,4.6,0.8,9.1,2.4,13.4c0.3,0.8,0.5,1.7,0.7,2.6c0.6,2.2,1.1,4.4,1.8,6.6
					c1.7,5.3,3.4,10.6,5.1,15.9c1.2,3.8,2.7,7.5,4.8,10.9c2.2,3.6,4.2,7.2,6.6,10.6c2.2,3.1,4.1,6.3,5.4,9.9
					c1.2,3.4,3.3,6.1,6.3,8.1c0.5,0.3,1,0.7,1.5,1c3.2,2.2,6.4,4.4,9.6,6.6c2.7,1.9,5.7,3.3,8.9,4c2.5,0.5,5.1,0.5,7.5-0.8
					c1.8-1,3.7-1.8,5.7-2.7c1.6-0.6,3.1-1.2,4.8-1.7c2.7-0.7,5.4-1.2,8.1-1.9c3.8-1.1,7.3-0.6,10.3,2.1c1.6,1.4,3.5,1.9,5.5,1.9
					c3.3,0,6.6-0.5,9.4-2.4c1.4-1,3-1.5,4.7-1.9c3.2-0.8,6.3-1.7,9.5-2.6c4.4-1.3,8.2-3.5,10.8-7.4c0.6-0.9,1.4-1.7,2.1-2.5
					c2.7-3.5,4.9-7.2,6.2-11.4c1.3-4.3,2.9-8.5,4.3-12.7c0.9-2.7,1.9-5.5,2.6-8.2c1.2-4.3,2.7-8.5,4.6-12.6c1.3-2.8,2.2-5.7,2.7-8.8
					c0.2-1.5,0.4-3,0.7-4.4c1.2-6,2.5-12.1,3.8-18.1c0.4-2.1,0.7-4.1,0.6-6.2c-0.1-2.1-0.1-4.2,0-6.3c0.3-4.4-0.2-8.7-1-13
					c-1.3-7.1-2.5-14.3-3.2-21.5C405,211.1,404.7,210.3,404.5,209.2z M402.3,193.2c0.1-0.9,0.2-1.3,0.2-1.8c0-3.3-0.1-6.6-0.2-9.8
					c-0.4-15.2-0.5-30.4,0.6-45.6c0.4-4.7-0.3-9.1-1.8-13.5c-0.8-2.4-2-4.5-3.6-6.5c-1-1.3-2.1-2.6-3.3-3.9
					c-2.2-2.3-4.4-4.5-7.1-6.4c-4.3-3-9.2-4.6-14.3-5.8c-2.7-0.7-5.4-1.2-8.2-1.6c-5.4-0.9-10.8-1.8-16.2-2.6
					c-4.9-0.8-9.8-1.4-14.7-2.5c-4.3-0.9-8.4-2.3-12.8-3c-1.7-0.3-3.4-0.4-5-0.3c-3.1,0.3-6.1,0.8-9,1.9c-1.5,0.6-3,1-4.6,1.4
					c-2.8,0.7-5.6,1.3-8.4,2c-5.4,1.4-10.8,2.7-16.2,4.2c-3.6,1-7.3,2-10.9,3.1c-1.4,0.4-2.9,1-4.1,1.7c-3.1,2-6.1,4.1-9.1,6.2
					c-0.3,0.2-0.6,0.5-0.9,0.8c-1.8,2-3.6,4-5.2,6.1c-3.5,4.5-6.1,9.6-7.3,15.2c-0.7,3.3-0.9,6.7-1.3,10c-0.1,0.5,0,1,0.1,1.5
					c0.5,6.3,1.1,12.7,1.6,19c0.4,4.8,0.5,9.5,0.8,14.3c0.5,6.7,1.2,13.5,1.8,20.2c0.1,0.7,0.3,1.3,0.5,2.1c0.8-0.4,1.4-0.6,2-0.9
					c5.9-2.8,11.8-5.8,17.7-8.5c9.1-4.1,18.4-7.6,28.2-9.4c2.4-0.5,4.9-0.8,7.4-1.1c6-0.7,12-1.6,18.1-1.6c3.5,0,7,0,10.4-0.1
					c7.2-0.1,14.3,0.6,21.4,1.7c5.3,0.8,10.6,1.8,15.9,2.7c10.3,1.9,20.4,4.6,30.1,8.3C397.4,191.5,399.7,192.3,402.3,193.2z
					 M259.2,338.6c-0.2,0-0.4,0.1-0.6,0.1c0.1,1.6,0.2,3.1,0.3,4.7c0.1,1.1,0.3,2.2,0.4,3.3c0.6,11,1.2,22.1,1.3,33.1
					c0,5.7,0.1,11.3,0.4,17c0.2,3.9,1.4,7.6,2.5,11.3c0.1,0.4,0.4,0.7,0.6,1c2.9,4.8,5.7,9.5,8.7,14.3c0.5,0.8,1.1,1.7,1.8,2.4
					c2.3,2,4.7,4.1,7.2,5.8c2.3,1.7,4.9,3,7.4,4.5c4,2.4,8.3,4.2,12.8,5.6c3.1,0.9,6.3,1.9,9.4,2.9c4.7,1.4,9.5,2.2,14.4,2.4
					c5.6,0.2,11.1-0.4,16.6-1.3c6.4-1.1,12.7-2.7,18.4-5.7c7.8-4.1,15.8-8,23.1-13c7-4.8,12.9-10.6,17.5-17.7
					c2.7-4.3,4.7-8.8,4.7-13.9c0.1-3.5-0.2-7-0.5-10.4c-0.1-1.3-0.2-2.6-0.8-3.8c-0.7-1.5-0.7-3.1-0.7-4.7
					c0.1-6.6,0.2-13.1,0.3-19.7c0.2-8.6,0.4-17.1,0.6-25.7c0-0.5,0.1-1,0-1.5c0-0.4,0.3-1-0.5-1.3c-0.4,0.7-0.8,1.3-1.1,2
					c-0.5,1.3-1,2.6-1.4,3.9c-1.9,5.8-3.5,11.8-6.6,17.2c-1.9,3.4-3.9,6.7-6.8,9.4c-2.1,2-4,4.1-5.4,6.7c-2,3.6-3.6,7.3-4.5,11.3
					c-1.8,7.6-6.1,13.7-11.2,19.4c-0.3,0.3-0.5,0.6-0.9,0.8c-2.2,1.3-4.4,2.7-6.3,4.5c-0.5,0.5-1.2,0.6-1.9,0.9
					c-2.9,1.5-5.9,3-8.7,4.6c-3.4,2-6.7,4.3-10.7,5.1c-0.3,0.1-0.5,0.2-0.8,0.3c-2.9,1.1-6,1.4-9.1,1.1c-2-0.1-3.9-0.7-5.5-2
					c-0.8-0.6-1.6-1.2-2.6-1.5c-3.1-0.8-5.9-2.3-8.9-3.5c-1.6-0.7-3-1.5-4.3-2.6c-0.8-0.7-1.8-1.2-2.7-1.9c-3.2-2.3-6.2-4.9-9.2-7.5
					c-0.1-0.1-0.1-0.1-0.2-0.2c-2.8-4.1-5.5-8.3-7.2-13c-1.3-3.6-2.7-7-4.2-10.5c-0.7-1.8-1.9-3.2-3.5-4.3c-1-0.7-1.9-1.4-2.7-2.3
					c-1.8-2.2-3.6-4.5-5.3-6.9c-2.4-3.4-4.7-6.9-7-10.4c-1.9-2.9-3.9-5.8-5.8-8.7C260,339.8,259.6,339.2,259.2,338.6z M226.7,217.4
					c1.9,0,3.3-0.3,4.6-1.1c1.9-1.1,3.8-2.2,5.6-3.4c1.7-1,3.4-2.1,5.1-3.1c7.5-4.3,15.5-7.6,23.6-10.7c2.9-1.1,5.8-2.1,8.8-2.9
					c4.4-1.1,8.9-2,13.4-2.9c9.4-2,18.9-2.8,28.4-3.1c7.5-0.2,14.9-0.1,22.4,0.5c4.9,0.4,9.7,0.9,14.5,1.7c4.3,0.6,8.6,1.6,12.9,2.4
					c2.8,0.5,5.7,0.9,8.5,1.6c2.7,0.6,5.4,1.3,8.1,2.1c3.9,1.2,7.7,2.5,11.6,3.8c2.2,0.7,4.3,1.7,6.5,2.3c3.4,0.9,6.6,2.2,9.6,4
					c1.8,1.1,3.7,2,5.5,3c0.3,0.1,0.9,0.1,1.1-0.1c0.3-0.3,0.6-0.9,0.5-1.3c-0.2-1.3-1-2.4-1.9-3.3c-4.6-4.3-9.4-8.3-15.4-10.6
					c-8.8-3.4-17.7-6.5-27-8.5c-9.2-2-18.5-3.7-27.9-5c-7.9-1.1-15.9-1.2-23.8-1.2c-6.2,0-12.3,0.6-18.4,1.3
					c-7.6,0.8-15.1,2.2-22.4,4.6c-6.8,2.3-13.4,5.1-19.9,8.1c-8.4,3.8-16.7,8-24.3,13.3c-2.5,1.8-5,3.7-7.4,5.6
					C228.1,215.1,227.2,215.9,226.7,217.4z M241.5,277c1.5-2.2,1.6-4.4,0.8-6.7c-0.4-1.2-1.1-2.4-1.7-3.5c-0.6-1.2-1.5-2.2-2.7-2.7
					c-1.1-0.5-2.1,0-3.1,0.5c-0.7,0.3-1.4,0.1-1.8-0.6c-0.6-0.8-0.4-1.7,0.4-2.3c1.5-1.1,3.2-1.4,5.1-0.9c1.7,0.5,3,1.6,4.1,2.8
					c0.4,0.5,0.9,0.9,1.5,1.6c-0.1-4.7-0.3-9.1-0.4-13.5c0-0.3,0-0.6-0.1-0.9c-0.3-2.6-1.5-3.8-4-4.4c-2.8-0.6-5.3,0.2-7.6,1.7
					c-1.6,1.1-2.5,2.5-2.5,4.5c0.1,3.1,0.1,6.2,0.3,9.2c0.2,3.3,0.7,6.5,0.7,9.8c0.2,7.2,1.9,14,5,20.4c1.1,2.3,2.8,4.3,4.7,6.1
					c1.9,1.8,4.3,2.5,6.8,2.5c0.4,0,0.9-0.3,1.4-0.5c-0.6-7.2-2.2-14-3.6-21.2c-1.2,1.8-1.1,3.4-0.5,5.1c0.4,1.1,0.9,2.2,1.4,3.3
					c0.6,1.3,0.5,2.7,0.3,4.1c-0.4,2.2-2.1,3.7-4.3,3.9c-1.7,0.1-3.1-0.8-3.4-2.3c-0.2-1.1,0.6-2,1.7-1.8c0.6,0.1,1.3,0.3,1.9,0.4
					c1-1.6,0.5-3-0.1-4.4c-1.1-2.3-1.8-4.6-1.6-7.1c-0.9-0.5-1.7-0.9-2.5-1.4c-2.6-1.8-3.7-5.3-2.8-8.2c0.3-1,0.8-1.8,1.6-2.4
					c0.7-0.6,1.6-0.6,2.2,0c0.5,0.5,0.7,1.2,0.4,1.9c-0.2,0.4-0.4,0.7-0.6,1c-0.6,1.1-0.6,2.3-0.2,3.5
					C239.1,276,239.9,276.8,241.5,277z M413.9,290.9c0.5,0,1.2,0.2,1.6,0c1.2-0.6,2.5-1.3,3.5-2.1c3.3-2.7,4.7-6.5,5.8-10.5
					c0.9-3.6,1-7.3,0.8-11c-0.2-4.4,0.2-8.7,0.9-13.1c0.4-2.3,0.8-4.7,0.8-7.1c-0.1-3.2-1.6-5.7-3.8-7.9c-1.1-1.1-2.5-1.5-4.1-1.4
					c-1.4,0.1-2.7,0.4-4.2,1c0,5.7-1.2,11.4,0.1,17.4c0.7-0.5,1.1-0.9,1.6-1.2c0.9-0.6,1.8-1.3,2.7-1.8c0.8-0.4,1.7-0.5,2.6-0.7
					c0.8-0.1,1.4,0.5,1.5,1.2c0.1,0.6-0.1,1.2-0.7,1.5c-0.3,0.2-0.7,0.3-1.1,0.4c-2.7,1.1-4.3,3.1-5.2,5.8c-0.3,0.9-0.4,1.7-0.6,2.6
					c-0.5,2,0,3.7,1.3,5.3c1.3-0.3,1.9-1.2,2.1-2.3c0.2-1,0.3-2,0.4-2.9c0.1-0.6,0.4-1.1,1.1-1.3c0.6-0.2,1.5,0.2,1.8,0.8
					c0.2,0.5,0.4,1.1,0.4,1.7c-0.1,2.7-1,5.1-3.5,6.6c-0.6,0.4-1.1,0.7-1.7,1.1c-0.1,0.8-0.3,1.5-0.4,2.1c-0.2,1.8-0.1,3.4,1.7,4.4
					c0.2,0.1,0.4,0.4,0.6,0.6c0.3,0.5,0.4,1.1,0.1,1.7s-0.9,0.8-1.5,0.8c-1.1,0-1.8-0.7-2.6-1.3c-0.5-0.4-0.6-1.3-1.5-1.2
					c-0.1,0.2-0.3,0.3-0.3,0.5c-0.2,3.2-0.4,6.3-0.5,9.5C413.6,290.4,413.7,290.6,413.9,290.9z"/>
				<path d="M502.6,509.4c0.3-0.7,0.3-0.8,0.3-0.9c-0.1-5.4-0.2-10.7-0.3-16.1c0-1.9-0.2-3.8-0.3-5.7c-0.3-5.3-0.5-10.5-0.8-15.8
					c-0.1-1.5,0-3,0.1-4.5c0-0.5,0.2-1,0.4-1.4c0.3-0.6,0.8-0.9,1.5-0.8c0.6,0.1,1.1,0.5,1.2,1.1c0.1,0.2,0.1,0.4,0.1,0.6
					c-0.3,4.7,0.8,9.3,0.8,14c0.1,7.1,0.8,14.1,0.7,21.2c-0.1,3.5,0.1,7,0.3,10.4c0.1,2,0.4,4,0.7,5.9c0.1,0.5,0.3,0.9,0.5,1.4
					s0.5,1.1,0.8,1.6c4.4,7.7,7.7,15.9,10.3,24.4c0.6,1.8,1.2,3.6,1.8,5.4c0.1,0.4,0.3,0.8,0.3,1.1c0.1,0.6-0.2,1.3-0.8,1.5
					c-0.5,0.2-1.2,0.2-1.7-0.1s-0.9-0.8-1.1-1.3c-0.5-1-0.8-2-1.1-3.1c-0.9-2.7-1.8-5.5-2.7-8.2c-2.4-7.4-6.1-14.2-9.8-21.1
					c-4-7.5-8-15.1-12-22.7c-0.7-1.3-1.3-2.7-2-4c-4.2-7.7-7.4-15.9-10.1-24.2c-1.3-4.2-2.6-8.3-4.1-12.5c-1.2-3.4-2.6-6.7-3.9-10
					c-0.5-1.3-1.1-2.6-1.4-3.9c-0.2-0.6-0.1-1.4,0.2-2c0.1-0.3,0.8-0.7,1.2-0.7c0.4,0,0.8,0.4,1.2,0.6c0.1,0,0.1,0.2,0.1,0.3
					c1.8,4.5,3.8,9,5.5,13.5c1.7,4.6,3.1,9.2,4.6,13.9c2.6,8.2,5.8,16.1,9.9,23.6c2.7,5.1,5.3,10.3,7.9,15.4
					C501.4,507.3,501.9,508.2,502.6,509.4z"/>
				<path d="M211.4,462.9c-0.6,2.8-1.1,5.8-1.9,8.6c-2.5,9.1-5,18.2-7.7,27.2c-6.3,20.8-9.2,28.5-8,24.7c-2.6,8.4-6,16.5-9.9,24.2
					c-4.6,9-8.3,18.5-12.2,27.8c-1.3,3-2.5,6.1-3.8,9.1c-0.9,2.2-1.9,4.4-2.3,6.7c0,0.3-0.2,0.6-0.3,0.8c-0.3,0.6-0.8,0.9-1.4,0.9
					c-0.7,0-1.4-0.4-1.5-1.2c-0.1-0.7-0.2-1.4,0-2c0.5-1.8,1.1-3.6,1.8-5.3c3.2-7.9,6.5-15.8,9.8-23.7c1.4-3.3,2.8-6.6,4.4-9.8
					c4.9-9.8,9.2-19.8,12.7-30.2c4.9-14.8,9.6-29.7,13.7-44.7c0.9-3.4,1.8-6.7,2.6-10.1c0.3-1.2,0.4-2.3,0.6-3.5
					c0.1-0.5,0.2-1,0.5-1.4c0.3-0.3,0.8-0.6,1.2-0.7c0.6-0.1,1.2,0.3,1.4,0.9C211.2,461.7,211.3,462.3,211.4,462.9z"/>
				<path d="M167.1,462.6c0-3.6,0-7.2,0-10.7c0-1.5,0.2-3,0.3-4.5c0.1-1,0.7-1.6,1.7-1.9c1.1-0.3,2.2,0.6,1.8,1.6
					c-0.8,2.1-0.5,4.3-0.5,6.5c0.2,8.2,0.1,16.3-0.5,24.5c-0.4,5.1-0.5,10.1-0.8,15.2c-0.3,5.7-0.6,11.3-0.9,17
					c-0.3,5-0.5,9.9-0.9,14.9c-0.3,5.4-0.7,10.7-1.1,16.1c0,0.1,0,0.2,0,0.3c-0.1,1.1-0.8,1.8-1.6,1.8s-1.5-0.7-1.7-1.8
					c-0.1-1-0.1-2-0.1-3c0.3-4.9,0.7-9.7,1-14.6c0.4-5.4,0.7-10.7,1-16.1c0.5-9.2,0.9-18.5,1.4-27.7
					C166.5,474.3,166.8,468.5,167.1,462.6C167.2,462.6,167.1,462.6,167.1,462.6z"/>
				<path d="M131.8,538.7c-0.3,0.5-0.5,1.1-0.9,1.2c-0.5,0.2-1.2,0.2-1.7-0.1c-1-0.7-1.4-1.9-1.9-3c-1.9-4.8-3.9-9.6-5.7-14.4
					c-2.9-8-6.7-15.5-11-22.8c-1.4-2.4-3.1-4.7-4.8-6.9c-2.2-2.9-4.6-5.7-7-8.6c-0.2-0.2-0.4-0.5-0.6-0.7c-0.5-0.8-0.5-1.6,0.2-2.1
					c0.6-0.5,1.4-0.5,2.2,0.2c0.5,0.4,0.9,0.8,1.3,1.3c6.6,7,12.2,14.7,16.3,23.4c2.6,5.5,5.2,10.9,7.2,16.7
					c1.6,4.5,3.5,8.9,5.3,13.3C131.2,536.9,131.5,537.8,131.8,538.7z"/>
				<path d="M573.8,501.8c0.1,0,0.7,0,1.2,0.3c0.6,0.3,1,0.8,0.7,1.5c-0.1,0.4-0.6,0.8-0.9,1.1c-0.1,0.1-0.2,0.1-0.3,0.1
					c-5.1,0.6-8.8,3.9-12.7,6.8c-1.5,1.1-2.5,2.8-3.4,4.5c-1.2,2.4-2.3,4.8-3.6,7.2c-1.4,2.6-2.9,5.2-4.4,7.8
					c-0.3,0.6-0.8,1.2-1.2,1.7c-0.6,0.7-1.5,0.8-2.2,0.4c-0.7-0.4-0.9-1.3-0.6-2.1c0.1-0.4,0.3-0.7,0.5-1.1c2.9-4.4,5.2-9.2,7.4-14
					c2.1-4.6,5.3-8.1,9.7-10.6c1.7-1,3.5-1.9,5.2-2.8C570.7,502.2,571.9,501.7,573.8,501.8z"/>
				<path d="M329.6,299.3c1.9,0.4,3.7,0.7,5.7,0.7c-0.2-0.6-0.3-1-0.4-1.4c-0.8-3.1,1.4-5.8,4.6-5.7c0.6,0,1.2,0.2,1.8,0.3
					c6,1.4,12,3,17.8,5c3.4,1.2,6.8,2.3,10.1,3.5c1.5,0.5,2.9,1.2,4.4,1.9c0.6,0.3,1.2,0.7,1.7,1.2c1,0.9,0.9,2.4-0.2,3.1
					c-0.9,0.5-1.4,1.2-2,2c-0.7,1-1.7,2-2.7,2.7c-2.8,1.9-5.8,3.5-8.6,5.3c-6.4,4.1-13.5,6.3-21,7s-14.9,0.5-22.3-0.9
					c-1.6-0.3-3.2-0.4-4.7-0.7c-6.3-1.4-12.1-3.8-17.4-7.5c-1.8-1.3-3.3-2.8-4.5-4.7c-0.7-1.1-1.3-2.3-2.5-3.1
					c-1.6-1.1-1.4-3.3,0.3-4.6c1.6-1.3,3.4-2.4,5.2-3.4c1.2-0.7,2.5-1.1,3.8-1.6c3.6-1.2,7.2-2.3,10.9-3.1c3.4-0.7,6.7-1.8,10.1-2.7
					c2.1-0.5,4.3-0.8,6.5-0.3c3.4,0.7,4.6,2.5,3.8,6C329.8,298.4,329.7,298.7,329.6,299.3z M297.4,308.8c1,0.1,1.8,0.1,2.6,0.2
					c6.5,0.4,13.1,0.7,19.6,1.2s13.1,1,19.6,1c7.3,0,14.5-0.2,21.7-0.6c2.2-0.1,4.5-0.3,6.8-1.5c-0.9-0.3-1.5-0.6-2.2-0.7
					c-3.7-0.7-7.4-1.4-11.1-2c-1.2-0.2-2.4-0.4-3.5-0.5c-2.6-0.3-5.1-0.6-7.7-1c-7.1-1.3-14.1-2.2-21.3-2c-1.1,0-2.2,0-3.3,0.2
					c-4.1,0.7-8.2,1.4-12.3,2.1c-3,0.5-5.9,1.8-8.6,3.1C297.7,308.3,297.6,308.4,297.4,308.8z M313.3,319.3c0.5,0.2,1,0.5,1.5,0.6
					c4.2,0.6,8.4,1.6,12.7,1.6c0.7,0,1.3-0.1,2.2-0.2c-0.5-2.3-0.6-4.6-1.3-6.9c-5.2-0.4-10.4-1-15.7-1
					C312.2,315.6,312.6,317.4,313.3,319.3z M333.4,321.7c2.6,0.4,4.8-0.2,7.1-0.3c2.2-0.2,4.5-0.2,6.6-1.3c-0.2-1.8,0.4-3.5-0.4-5.2
					c-1.6,0-3.2,0-4.8,0c-1.7,0-3.4-0.1-5.1,0c-1.6,0-3.2-0.4-4.7,0.3C332,317.3,332.7,319.4,333.4,321.7z M298.7,312.8
					c3,2.9,6.8,4.1,10.7,5.6c0-1.9,0-3.5-0.4-5.2C305.5,312.5,302.1,312.6,298.7,312.8z M350.4,315c0,1.5-0.5,2.8,0.4,4.2
					c2.8-0.9,5.4-2.1,7.9-3.6c0.4-0.2,0.9-0.4,0.8-1.2C356.6,314.4,353.7,314.2,350.4,315z"/>
				<path d="M317.6,214.3c-0.1,0.6-0.1,0.9-0.2,1.2c-0.5,3.1-2.8,4.6-5.9,3.8c-2.1-0.6-4.2-1.3-6.2-2c-7-2.2-14.2-2.6-21.5-1.7
					c-3.1,0.4-6.1,0.9-9.1,1.5c-3.1,0.7-6.1,1.7-8.9,3.2c-1.6,0.9-2.8,0.1-2.7-1.7c0-0.7,0.3-1.3,0.6-1.9c0.3-0.5,0.7-1,1.1-1.4
					c3.3-3.1,6.9-5.7,11-7.6c5.4-2.5,11.1-3.8,17-4.2c3.4-0.2,6.8,0.1,10.1,0.5c2.1,0.3,4.1,0.6,6.2,1.1c3.6,0.8,6.3,2.9,7.8,6.4
					C317.2,212.4,317.4,213.5,317.6,214.3z"/>
				<path d="M364.5,206c9,0.2,17.1,3,24.2,8.6c3.5,2.8,6,6.3,8.2,10.1c0.2,0.3,0.3,0.7,0.4,1.1c0.2,1.3-1,2.6-2.3,2.4
					c-0.6-0.1-1.3-0.5-1.8-0.9c-5.3-4.4-11.5-7.1-18.2-8.3c-4.9-0.9-9.7-0.5-14.5,0.5c-1.3,0.3-2.5,0.6-3.8,0.8
					c-2.7,0.4-5.5-1-6.8-3.3c-1-1.8-1.1-3.6,0-5.4c0.9-1.6,2.3-2.7,4-3.5C357.1,206.6,360.7,205.8,364.5,206z"/>
				<path d="M283.5,232.3c-3.3,1.4-5.8,3.2-7.4,6.2c-0.7,1.4-1.7,1.7-2.6,1.2c-0.8-0.5-1-1.4-0.5-2.7c0.6-1.5,1.6-2.7,2.7-3.9
					c1.7-1.6,3.6-2.8,5.7-3.7c6.3-2.6,12.7-3,19.2-1c2.5,0.8,4.8,1.9,6.7,3.8c0.9,0.9,1.6,2,2.3,3.1c0.4,0.6,0.1,1.4-0.4,1.9
					c-0.5,0.4-1.5,0.5-1.9,0.1c-0.5-0.5-0.9-1-1.4-1.5c-2-2.3-4.6-3.6-7.7-4.3c-0.3,1-0.5,1.9-0.7,2.7c-0.9,3.7-4.4,4.8-7.2,4.2
					c-2.7-0.6-5-1.9-6.2-4.6C284.1,233.2,283.9,232.9,283.5,232.3z"/>
				<path d="M377,229.8c-0.6,2-1,3.8-2.6,4.8c-1.3,0.8-2.7,1.4-4.2,1.3c-1.8,0-3.3-0.7-4.6-1.8c-1.4-1.2-1.7-2.8-2.2-4.7
					c-0.7,0.2-1.2,0.2-1.7,0.4c-2.4,1.1-4.4,2.6-5.9,4.9c-0.3,0.5-0.7,1-1.1,1.4c-0.5,0.5-1.3,0.6-1.9,0.2c-0.6-0.4-1-1.1-0.7-1.8
					c0.2-0.6,0.6-1.3,0.9-1.9c1.8-2.7,4.3-4.7,7.2-6c5.5-2.4,11.2-2.7,16.9-0.6c2.8,1,5.1,2.6,7.1,4.8c1.3,1.4,2.2,3.1,2.7,4.9
					c0.3,1.2-0.1,2.1-1,2.5c-0.8,0.3-1.6-0.1-2.1-1.1c-0.2-0.4-0.3-0.7-0.4-1.1C382.1,233.2,380.1,231.2,377,229.8z"/>
				<path d="M332.3,336.6c-7.5-0.2-14.6-1.7-21.3-5.1c-1.2-0.6-2.4-1.4-3.6-2.2c-0.5-0.3-0.9-0.8-1.2-1.3c-0.3-0.5-0.2-1.2,0.2-1.7
					c0.4-0.5,0.9-0.8,1.6-0.6c0.6,0.2,1.2,0.6,1.8,1c5.4,3.5,11.3,5.3,17.6,5.9c4.3,0.4,8.7,0.4,13.1-0.5c3.7-0.7,7.3-1.9,10.5-3.9
					c0.7-0.4,1.4-0.8,2.1-1c0.6-0.2,1.2,0.2,1.5,0.7c0.3,0.6,0.4,1.2-0.1,1.7c-0.6,0.6-1.3,1.2-2.1,1.7c-3.6,2.2-7.5,3.6-11.7,4.3
					C338,336.2,335.1,336.3,332.3,336.6z"/>
				<path d="M341.6,267.4c0.1,1.2-1.1,2.2-2,1.8c-0.6-0.3-1.2-0.7-1.7-1.1c-0.9-0.7-1.8-1.5-2.8-2.3c-1.5-1.1-3.1-1.6-5-1.7
					c-2.4,0-4.7,0.1-7,1c-1.8,0.7-3.4,1.7-4.5,3.3c-0.2,0.3-0.4,0.7-0.7,0.9c-0.4,0.2-0.9,0.3-1.4,0.2c-0.6-0.1-1-0.7-1-1.3
					c0.1-0.6,0.3-1.2,0.5-1.7c0.7-1.3,1.8-2.3,3.1-3.1c4.5-3,9.5-3.4,14.6-2.2c1.3,0.3,2.5,1.2,3.6,2c1.3,0.9,2.4,2,3.6,3.1
					C341.3,266.7,341.5,267.2,341.6,267.4z"/>
				<path d="M283,297.3c0-2.1,0.5-4,1.6-5.7c2.6-3.8,5.3-7.4,7.9-11.1c0.3-0.4,0.7-0.7,1.1-1c0.7-0.6,1.6-0.6,2.2,0
					c0.6,0.5,0.6,1.3,0,2.1c-2.1,3-4.2,6-6.4,9c-0.5,0.6-0.9,1.3-1.3,2c-1,1.6-1.7,3.4-1.6,5.3c0,0.5,0,1-0.1,1.5
					c-0.2,0.7-0.8,1.2-1.5,1.2s-1.4-0.5-1.6-1.1C283.2,298.6,283.1,297.9,283,297.3z"/>
				<path d="M337.6,235.8c0-3.8,0.5-7.2,2.3-10.3c0.3-0.5,0.6-1,1-1.5s1-0.6,1.6-0.2c0.5,0.4,0.8,0.9,0.8,1.5
					c-0.1,0.4-0.2,0.8-0.4,1.1c-2.4,4.4-2.1,9-1.4,13.7c0.2,1.5,0.7,2.9,1,4.3c0.1,0.4,0.3,0.7,0.4,1.1c0.1,0.7-0.2,1.4-0.9,1.7
					c-0.7,0.3-1.7,0.2-2.1-0.6c-0.4-0.7-0.8-1.4-1-2.1C338.1,241.6,337.5,238.6,337.6,235.8z"/>
				<path d="M301.1,277.1c0.1-2.4,1.7-5,4.7-6.7c0.4-0.2,0.9-0.4,1.4-0.4c0.6-0.1,1.2,0.2,1.5,0.7c0.3,0.6,0.3,1.5-0.2,1.9
					c-0.5,0.5-1.1,0.8-1.7,1.2c-1.2,1-2.1,2.1-2.2,3.7c-0.2,2.5,1.3,4.8,4,5.6c0.9,0.3,1.8,0.3,2.6,0.6c0.7,0.2,1.2,0.9,1.1,1.6
					c0,0.8-0.7,1.5-1.6,1.5C306.3,287.3,301.1,283.6,301.1,277.1z"/>
				<path d="M356.6,278.3c0,1-0.5,2.5-1.5,3.8c-2,2.6-4.8,4-8,4.8c-0.2,0-0.4,0.1-0.6,0.1c-0.8,0-1.4-0.4-1.7-1
					c-0.3-0.7,0-1.7,0.7-2c0.6-0.3,1.3-0.4,1.9-0.8c1.3-0.7,2.7-1.3,3.8-2.2c2.1-1.7,2.3-3.8,0.7-6c-0.5-0.6-1.1-1.2-1.6-1.7
					c-0.3-0.4-0.8-0.6-1.1-1c-0.6-0.6-0.7-1.6-0.2-2.2c0.4-0.6,1.4-0.8,2.2-0.5C354,270.7,356.6,274.7,356.6,278.3z"/>
				<path d="M376.3,297.3c-0.1,1-0.5,1.5-1.2,1.8c-0.6,0.2-1.2,0-1.6-0.5c-0.4-0.4-0.6-1-0.9-1.5c-0.8-1.5-1.4-3.1-2.4-4.4
					c-2.1-3.1-4.4-6.1-6.6-9.2c-0.6-0.9-1.4-1.7-1.4-2.9c0-0.6,0.2-1.2,0.8-1.4c0.6-0.3,1.2-0.2,1.6,0.3c0.1,0.1,0.3,0.3,0.4,0.5
					c2.2,2.8,4.3,5.7,6.5,8.5c1.8,2.4,3.5,4.8,4.4,7.7C376,296.5,376.2,297,376.3,297.3z"/>
				<path d="M361.8,251.2c-0.5-0.2-0.9-0.3-1.2-0.5c-2.7-1.7-5.3-3.4-8-5.1c-0.2-0.2-0.5-0.3-0.7-0.6c-0.4-0.5-0.6-1-0.3-1.6
					c0.3-0.6,0.8-0.9,1.4-0.8c0.6,0.1,1.1,0.3,1.6,0.6c2.2,1.2,4.3,2.4,6.4,3.7c0.7,0.5,1.4,1.1,1.9,1.8c0.3,0.4,0.1,1.2-0.1,1.7
					C362.8,250.8,362.2,251,361.8,251.2z"/>
				<path d="M320.1,280.9c-0.1,1.1-1.2,1.8-2,1.4c-0.4-0.2-0.7-0.4-1-0.6c-1.6-1.4-3.5-1.6-5.6-1.2c-0.5,0.1-1,0.2-1.5,0.2
					c-0.8,0-1.5-0.6-1.7-1.4c-0.1-0.8,0.3-1.7,1.1-1.8c1.4-0.2,2.9-0.4,4.4-0.4c2.3,0.1,4.2,1,5.7,2.7
					C319.9,280.2,320,280.7,320.1,280.9z"/>
				<path d="M345.2,279.9c-0.5-0.1-0.9-0.1-1.2-0.1c-1.7-0.3-3.4-0.2-4.9,0.8c-0.2,0.2-0.5,0.3-0.8,0.3c-0.8,0.2-1.5,0-1.8-0.5
					c-0.4-0.7-0.2-1.6,0.5-2.1c1.2-0.9,2.5-1.7,4-1.7c1.7-0.1,3.4,0,5,0.1c1.1,0.1,1.7,0.9,1.6,1.7c-0.1,0.9-0.8,1.5-1.9,1.5
					C345.6,280,345.4,279.9,345.2,279.9z"/>
				<path d="M311.7,241.2c1.2,0,2,1,1.6,1.8c-0.3,0.7-0.7,1.4-1.1,2.1c-1,1.6-2,3.1-3.1,4.7c-0.3,0.5-0.8,1-1.3,1.1
					c-0.5,0.2-1.2,0-1.6-0.2c-0.5-0.3-0.7-1-0.5-1.6c0.1-0.2,0.1-0.4,0.2-0.5c1.5-2.2,3-4.4,4.6-6.6
					C310.8,241.5,311.4,241.3,311.7,241.2z"/>
			</g>
		</g>
	</g>
	<g>
		<defs>
			<circle id="SVGID_00000166646497042232715460000000380127711535982753_" cx="317.6" cy="315.5" r="312"/>
		</defs>
		<clipPath id="SVGID_00000036952638061865843380000011388775037434439867_">
			<use xlink:href="#SVGID_00000166646497042232715460000000380127711535982753_"  style="overflow:visible;"/>
		</clipPath>
		
			<path style="opacity:0.24;clip-path:url(#SVGID_00000036952638061865843380000011388775037434439867_);enable-background:new    ;" d="
			M231.5,266.8c-0.8,5.8,1.1,11.7,3.4,17.1c2.6,6.2,6,12.6,11.9,15.9c0.7,0.4,1.6,0.8,2.4,0.7c1.2-0.1,2.2-1.2,2.7-2.3
			s0.3-2.5,0.2-3.7c-0.8-8.3-3.7-16.3-6.8-24C243.3,265.5,232.8,257.5,231.5,266.8z"/>
	</g>
	<g>
		<defs>
			<circle id="SVGID_00000096038341233325561600000011898873097085365172_" cx="317.6" cy="315.5" r="312"/>
		</defs>
		<clipPath id="SVGID_00000080929459861428747630000016191010557785729439_">
			<use xlink:href="#SVGID_00000096038341233325561600000011898873097085365172_"  style="overflow:visible;"/>
		</clipPath>
		
			<path style="opacity:0.24;clip-path:url(#SVGID_00000080929459861428747630000016191010557785729439_);enable-background:new    ;" d="
			M423.2,260c0,5-0.4,10-1,14.9c-0.2,1.9-0.7,4.1-2.4,5c-0.5,0.3-1.1,0.4-1.6,0.8c-0.8,0.7-0.9,1.8-1,2.8c-0.4,3.5-1.7,7-4.5,9.2
			c-1-0.5-1.1-1.8-1.1-2.9c0.2-9,1-18,2.3-26.8c0.3-1.8,0.6-3.6,1.7-4.9c0.9-1,4-3.3,5.5-3C423.3,255.4,423.2,258.2,423.2,260z"/>
	</g>
	<g>
		<defs>
			<circle id="SVGID_00000136384027224206316910000010235699208271976113_" cx="317.6" cy="315.5" r="312"/>
		</defs>
		<clipPath id="SVGID_00000098216183612022761870000006133875548218208926_">
			<use xlink:href="#SVGID_00000136384027224206316910000010235699208271976113_"  style="overflow:visible;"/>
		</clipPath>
		
			<path style="opacity:0.24;clip-path:url(#SVGID_00000098216183612022761870000006133875548218208926_);enable-background:new    ;" d="
			M301.5,214.2c12.7,0.1,26.6,3.9,33.8,14.4c2.8,4.1,4.4,8.9,4.5,13.9c5.6-8.8,12.3-17.8,22.1-21.5c7.7-3,16.4-2.2,24.4-0.2
			c8,2.1,15.6,5.5,23.5,7.8c-0.2-4.9-0.5-9.9-0.7-14.8c-0.1-1.1-0.1-2.3-0.8-3.1c-0.6-0.8-1.5-1.2-2.4-1.6
			c-25.8-11.2-54.1-15.4-82.1-17.4c-6.1-0.4-12.2-0.8-18.3-0.3c-8,0.6-15.8,2.5-23.6,4.5c-9.3,2.3-18.7,4.7-27.3,8.9
			c-2.4,1.2-4.8,2.5-6.4,4.6c-2.6,3.3-3,8.2-2.8,12.3c0.2,5.9,4.6,3.3,8.6,1.9c9.9-3.3,19.9-6.3,30.1-7.9
			C289.8,214.6,295.7,214.1,301.5,214.2z"/>
	</g>
	<g>
		<defs>
			<circle id="SVGID_00000163751539958946434820000002917445289195515565_" cx="317.6" cy="315.5" r="312"/>
		</defs>
		<clipPath id="SVGID_00000010279633814821343970000010374742519785432744_">
			<use xlink:href="#SVGID_00000163751539958946434820000002917445289195515565_"  style="overflow:visible;"/>
		</clipPath>
		
			<path style="opacity:0.24;clip-path:url(#SVGID_00000010279633814821343970000010374742519785432744_);enable-background:new    ;" d="
			M304.7,282.6c1.9,2.2,4.7,3.3,7.6,3.9c2.8,0.7,5.7,1.1,8.3,2.4c2.9,1.4,5.1,3.9,7.7,5.7s5.9,3.3,9,2.2c0.9,0.6,0.5,2.1-0.4,2.6
			c-0.9,0.6-2,0.5-3.1,0.4s-2.3-0.2-3.4-0.4c-0.5-0.1-1-0.1-1.4-0.4c-1.1-0.7-1-2.4-0.1-3.3c0.8-1,2.1-1.3,3.3-1.8
			c5.3-1.8,10.1-4.8,14.9-7.7c2-1.2,4.1-2.5,5.6-4.3s2.4-4.3,1.6-6.6c-0.6-1.9-3.2-3.3-4.6-1.9c-0.8,0.8-0.7,2.1-1.3,3
			c-1.3,2.4-4.9,1.6-7.5,2.3c-2.6,0.7-4.5,3.2-6.9,4.3c-6.6,3-13.8-4.1-21-3.4c-2,0.2-4.1,1-5.8-0.1c-1.2-0.8-2.1-4.5-3.7-3.4
			C301.9,277.5,303.9,281.7,304.7,282.6z"/>
	</g>
	<g>
		<defs>
			<circle id="SVGID_00000005256057025395315190000015791326688135774859_" cx="317.6" cy="315.5" r="312"/>
		</defs>
		<clipPath id="SVGID_00000096755191594663723930000010712980763729288066_">
			<use xlink:href="#SVGID_00000005256057025395315190000015791326688135774859_"  style="overflow:visible;"/>
		</clipPath>
		
			<path style="opacity:0.24;clip-path:url(#SVGID_00000096755191594663723930000010712980763729288066_);enable-background:new    ;" d="
			M322.7,338.3c2.7,1.5,5.5,3,8.5,3.5c6.9,1.3,14.4-2.8,17.1-9.2c-3.9,0.6-7.9,1.1-11.8,1.7c-1.7,0.2-3.3,0.5-5,0.5
			c-3.2,0.1-6.3-0.5-9.4-1.1c-2.2-0.4-5.1-1.5-7.3-1.1C316.6,335.1,320,336.8,322.7,338.3z"/>
	</g>
	<g>
		<defs>
			<circle id="SVGID_00000148619200199477825590000001444286698186975363_" cx="317.6" cy="315.5" r="312"/>
		</defs>
		<clipPath id="SVGID_00000050627223825635276470000016191308076604514216_">
			<use xlink:href="#SVGID_00000148619200199477825590000001444286698186975363_"  style="overflow:visible;"/>
		</clipPath>
		
			<path style="opacity:0.24;clip-path:url(#SVGID_00000050627223825635276470000016191308076604514216_);enable-background:new    ;" d="
			M280.7,393.3c2.5,4.4,5,8.9,8.5,12.7c2.9,3.1,6.5,5.7,9.4,8.8c2.5,2.6,4.6,5.7,7.1,8.3c3.4,3.5,7.7,6.2,12.2,8.2
			c12.8,5.8,27.2,6.6,41.2,6.3c8.4-0.2,16.9-0.8,24.6-4.1c7.7-3.4,14.3-10,15.6-18.3c0.2-1.4,0.3-2.9,0.9-4.2
			c1.3-2.8,4.5-4.1,6.7-6.3c2.6-2.8,3.4-6.9,3.1-10.7c-0.3-3.8-1.5-7.5-2.4-11.2c-4.2-17.9,0.2-36.6-1.8-54.9
			c-0.1-0.9-0.3-1.9-1-2.5c-1.1-0.8-2.6,0-3.6,0.8c-9.8,7.3-15.8,18.4-22.8,28.3c-7.1,9.9-16.6,19.5-28.7,20.9
			c-4.7,0.5-9.4-0.2-14-1.1c-7.5-1.4-14.9-3.1-22.2-5.1c-5.6-1.5-11.2-3.2-16.3-5.9c-5.5-3-10.3-7.1-15-11.2
			c-5.5-4.9-10.9-9.8-16.3-14.9c-4.7-4.4-8.5-2.7-7.5,3.4c1.1,6.2,3,12.3,5.2,18.2C268.2,370.8,274.5,382.1,280.7,393.3z"/>
	</g>
</g>
</svg>
